<svg width="100" height="100" xmlns="http://www.w3.org/2000/svg"><g id="Site" stroke="none" stroke-width="1" fill="none" fill-rule="evenodd"><g id="whitecode_main-upd" transform="translate(-590 -30)"><g id="first"><g id="logo-icon" transform="translate(590 30)"><path d="M50 0c27.614 0 50 22.386 50 50s-22.386 50-50 50S0 77.614 0 50 22.386 0 50 0" id="Combined-Shape" fill="#000"/><path d="M70.9 31.75h-7.6c1.1 4.175 2.275 9.075 2.275 14.25 0 5.625-.9 13.275-6.575 13.275-4.1 0-3.95-3.325-3.95-7.45v-20.05h-7.525V53c0 3.325-3.025 6.275-6.45 6.275-4.1 0-4.35-3.4-4.35-7.4V31.75h-7.6V53.9c0 7.725 3.7 11.375 10.725 11.375 4.15 0 7.675-1.375 10.475-5.35 1.3 3.2 3.975 5.35 8.775 5.35 9.625 0 14.1-7.65 14.1-19.55-.025-5.025-1.075-9.875-2.3-13.975m-51.65 24.7c-2.725 0-4.425 1.9-4.425 4.45 0 2.625 1.55 4.45 4.625 4.45 2.8 0 4.425-1.95 4.425-4.5 0-2.65-1.7-4.4-4.625-4.4" id="Fill-3" fill="#FFF"/></g></g></g></g></svg>