<?xml version="1.0" encoding="UTF-8"?>
<svg width="100px" height="100px" viewBox="0 0 100 100" version="1.1" xmlns="http://www.w3.org/2000/svg" xmlns:xlink="http://www.w3.org/1999/xlink">
    <!-- Generator: Sketch 52.2 (67145) - http://www.bohemiancoding.com/sketch -->
    <title>logo-icon</title>
    <desc>Created with Sketch.</desc>
    <g id="Site" stroke="none" stroke-width="1" fill="none" fill-rule="evenodd">
        <g id="whitecode_main-upd" transform="translate(-590.000000, -30.000000)">
            <g id="first">
                <g id="logo-icon" transform="translate(590.000000, 30.000000)">
                    <path d="M50,0 C77.61425,0 100,22.38575 100,50 C100,77.61425 77.61425,100 50,100 C22.38575,100 0,77.61425 0,50 C0,22.38575 22.38575,0 50,0" id="Combined-Shape" fill="#000000"></path>
                    <path d="M70.8999,31.75 L63.30015,31.75 C64.3999,35.925 65.5749,40.825 65.5749,46 C65.5749,51.625 64.67515,59.275 58.9999,59.275 C54.8999,59.275 55.05015,55.95 55.05015,51.825 L55.05015,31.775 L47.5249,31.775 L47.5249,53 C47.5249,56.325 44.4999,59.275 41.0749,59.275 C36.9749,59.275 36.7249,55.875 36.7249,51.875 L36.7249,31.75 L29.1249,31.75 L29.1249,53.9 C29.1249,61.625 32.8249,65.275 39.8499,65.275 C43.9999,65.275 47.5249,63.9 50.3249,59.925 C51.6249,63.125 54.30015,65.275 59.10015,65.275 C68.72515,65.275 73.1999,57.625 73.1999,45.725 C73.17515,40.7 72.1249,35.85 70.8999,31.75" id="Fill-3" fill="#FFFFFF"></path>
                    <path d="M19.2499,56.45 C16.5249,56.45 14.8249,58.35 14.8249,60.9 C14.8249,63.525 16.3749,65.35 19.4499,65.35 C22.2499,65.35 23.8749,63.4 23.8749,60.85 C23.8749,58.2 22.17515,56.45 19.2499,56.45" id="Fill-3" fill="#FFFFFF"></path>
                </g>
            </g>
        </g>
    </g>
</svg>